<svg width="128" height="33" viewBox="0 0 128 33" fill="none" xmlns="http://www.w3.org/2000/svg">
<path d="M18.816 14.784C18.816 15.296 18.784 15.8293 18.72 16.384H6.336C6.42133 17.4933 6.77333 18.3467 7.392 18.944C8.032 19.52 8.81067 19.808 9.728 19.808C11.0933 19.808 12.0427 19.232 12.576 18.08H18.4C18.1013 19.2533 17.5573 20.3093 16.768 21.248C16 22.1867 15.0293 22.9227 13.856 23.456C12.6827 23.9893 11.3707 24.256 9.92 24.256C8.17067 24.256 6.61333 23.8827 5.248 23.136C3.88267 22.3893 2.816 21.3227 2.048 19.936C1.28 18.5493 0.896 16.928 0.896 15.072C0.896 13.216 1.26933 11.5947 2.016 10.208C2.784 8.82133 3.85067 7.75467 5.216 7.008C6.58133 6.26133 8.14933 5.888 9.92 5.888C11.648 5.888 13.184 6.25067 14.528 6.976C15.872 7.70133 16.9173 8.736 17.664 10.08C18.432 11.424 18.816 12.992 18.816 14.784ZM13.216 13.344C13.216 12.4053 12.896 11.6587 12.256 11.104C11.616 10.5493 10.816 10.272 9.856 10.272C8.93867 10.272 8.16 10.5387 7.52 11.072C6.90133 11.6053 6.51733 12.3627 6.368 13.344H13.216ZM35.4628 10.496V15.04H21.3828V10.496H35.4628ZM47.5293 24.256C45.9719 24.256 44.5853 23.9893 43.3693 23.456C42.1533 22.9227 41.1933 22.1973 40.4893 21.28C39.7853 20.3413 39.3906 19.296 39.3053 18.144H44.7133C44.7773 18.7627 45.0653 19.264 45.5773 19.648C46.0893 20.032 46.7186 20.224 47.4653 20.224C48.1479 20.224 48.6706 20.096 49.0333 19.84C49.4173 19.5627 49.6093 19.2107 49.6093 18.784C49.6093 18.272 49.3426 17.8987 48.8093 17.664C48.2759 17.408 47.4119 17.1307 46.2173 16.832C44.9373 16.5333 43.8706 16.224 43.0173 15.904C42.1639 15.5627 41.4279 15.04 40.8093 14.336C40.1906 13.6107 39.8813 12.64 39.8813 11.424C39.8813 10.4 40.1586 9.472 40.7133 8.64C41.2893 7.78667 42.1213 7.11467 43.2093 6.624C44.3186 6.13333 45.6306 5.888 47.1453 5.888C49.3853 5.888 51.1453 6.44267 52.4253 7.552C53.7266 8.66133 54.4733 10.1333 54.6653 11.968H49.6093C49.5239 11.3493 49.2466 10.8587 48.7773 10.496C48.3293 10.1333 47.7319 9.952 46.9853 9.952C46.3453 9.952 45.8546 10.08 45.5133 10.336C45.1719 10.5707 45.0013 10.9013 45.0013 11.328C45.0013 11.84 45.2679 12.224 45.8013 12.48C46.3559 12.736 47.2093 12.992 48.3613 13.248C49.6839 13.5893 50.7613 13.9307 51.5933 14.272C52.4253 14.592 53.1506 15.1253 53.7693 15.872C54.4093 16.5973 54.7399 17.5787 54.7613 18.816C54.7613 19.8613 54.4626 20.8 53.8653 21.632C53.2893 22.4427 52.4466 23.0827 51.3373 23.552C50.2493 24.0213 48.9799 24.256 47.5293 24.256ZM69.085 5.952C71.133 5.952 72.7757 6.63467 74.013 8C75.2503 9.344 75.869 11.2 75.869 13.568V24H70.429V14.304C70.429 13.1093 70.1197 12.1813 69.501 11.52C68.8823 10.8587 68.0503 10.528 67.005 10.528C65.9597 10.528 65.1277 10.8587 64.509 11.52C63.8903 12.1813 63.581 13.1093 63.581 14.304V24H58.109V0.32H63.581V8.544C64.1357 7.75467 64.893 7.12533 65.853 6.656C66.813 6.18667 67.8903 5.952 69.085 5.952ZM87.7995 24.256C86.0502 24.256 84.4715 23.8827 83.0635 23.136C81.6768 22.3893 80.5782 21.3227 79.7675 19.936C78.9782 18.5493 78.5835 16.928 78.5835 15.072C78.5835 13.2373 78.9888 11.6267 79.7995 10.24C80.6102 8.832 81.7195 7.75467 83.1275 7.008C84.5355 6.26133 86.1142 5.888 87.8635 5.888C89.6128 5.888 91.1915 6.26133 92.5995 7.008C94.0075 7.75467 95.1168 8.832 95.9275 10.24C96.7382 11.6267 97.1435 13.2373 97.1435 15.072C97.1435 16.9067 96.7275 18.528 95.8955 19.936C95.0848 21.3227 93.9648 22.3893 92.5355 23.136C91.1275 23.8827 89.5488 24.256 87.7995 24.256ZM87.7995 19.52C88.8448 19.52 89.7302 19.136 90.4555 18.368C91.2022 17.6 91.5755 16.5013 91.5755 15.072C91.5755 13.6427 91.2128 12.544 90.4875 11.776C89.7835 11.008 88.9088 10.624 87.8635 10.624C86.7968 10.624 85.9115 11.008 85.2075 11.776C84.5035 12.5227 84.1515 13.6213 84.1515 15.072C84.1515 16.5013 84.4928 17.6 85.1755 18.368C85.8795 19.136 86.7542 19.52 87.7995 19.52ZM105.519 8.672C106.052 7.84 106.788 7.168 107.727 6.656C108.665 6.144 109.764 5.888 111.023 5.888C112.495 5.888 113.828 6.26133 115.023 7.008C116.217 7.75467 117.156 8.82133 117.839 10.208C118.543 11.5947 118.895 13.2053 118.895 15.04C118.895 16.8747 118.543 18.496 117.839 19.904C117.156 21.2907 116.217 22.368 115.023 23.136C113.828 23.8827 112.495 24.256 111.023 24.256C109.785 24.256 108.687 24 107.727 23.488C106.788 22.976 106.052 22.3147 105.519 21.504V32.512H100.047V6.144H105.519V8.672ZM113.327 15.04C113.327 13.6747 112.943 12.608 112.175 11.84C111.428 11.0507 110.5 10.656 109.391 10.656C108.303 10.656 107.375 11.0507 106.607 11.84C105.86 12.6293 105.487 13.7067 105.487 15.072C105.487 16.4373 105.86 17.5147 106.607 18.304C107.375 19.0933 108.303 19.488 109.391 19.488C110.479 19.488 111.407 19.0933 112.175 18.304C112.943 17.4933 113.327 16.4053 113.327 15.04Z" fill="#303030"/>
<path d="M124.325 24.256C123.365 24.256 122.576 23.9787 121.957 23.424C121.36 22.848 121.061 22.144 121.061 21.312C121.061 20.4587 121.36 19.744 121.957 19.168C122.576 18.592 123.365 18.304 124.325 18.304C125.264 18.304 126.032 18.592 126.629 19.168C127.248 19.744 127.557 20.4587 127.557 21.312C127.557 22.144 127.248 22.848 126.629 23.424C126.032 23.9787 125.264 24.256 124.325 24.256Z" fill="#FF624C"/>
</svg>
