<svg width="127" height="33" viewBox="0 0 127 33" fill="none" xmlns="http://www.w3.org/2000/svg">
<path d="M8.95952 9.95205C7.16752 9.95205 5.79152 11.0401 5.47152 13.0241H12.3195C12.3195 11.0721 10.7835 9.95205 8.95952 9.95205ZM17.5035 17.7601C16.6395 21.2481 13.4715 23.9361 9.02352 23.9361C3.77552 23.9361 -0.000484347 20.4161 -0.000484347 14.7521C-0.000484347 9.08805 3.71152 5.56805 9.02352 5.56805C14.2395 5.56805 17.9195 9.02405 17.9195 14.4641C17.9195 14.9761 17.8875 15.5201 17.8235 16.0641H5.43952C5.63152 18.4001 7.07152 19.4881 8.83152 19.4881C10.3675 19.4881 11.2315 18.7201 11.6795 17.7601H17.5035ZM20.4863 14.7201V10.1761H34.5663V14.7201H20.4863ZM53.8648 18.4961C53.8648 21.6001 51.1128 23.9361 46.6328 23.9361C41.8648 23.9361 38.6648 21.2801 38.4088 17.8241H43.8168C43.9448 19.0721 45.0648 19.9041 46.5688 19.9041C47.9768 19.9041 48.7128 19.2641 48.7128 18.4641C48.7128 15.5841 38.9848 17.6641 38.9848 11.1041C38.9848 8.06405 41.5768 5.56805 46.2488 5.56805C50.8568 5.56805 53.4168 8.12805 53.7688 11.6481H48.7128C48.5528 10.4321 47.6248 9.63205 46.0888 9.63205C44.8088 9.63205 44.1048 10.1441 44.1048 11.0081C44.1048 13.8561 53.7688 11.8401 53.8648 18.4961ZM57.2125 23.6801V5.34058e-05H62.6845V8.22405C63.7725 6.68805 65.7245 5.63205 68.1885 5.63205C72.2525 5.63205 74.9725 8.44805 74.9725 13.2481V23.6801H69.5325V13.9841C69.5325 11.5521 68.1885 10.2081 66.1085 10.2081C64.0285 10.2081 62.6845 11.5521 62.6845 13.9841V23.6801H57.2125ZM96.247 14.7521C96.247 20.4161 92.151 23.9361 86.903 23.9361C81.655 23.9361 77.687 20.4161 77.687 14.7521C77.687 9.08805 81.751 5.56805 86.967 5.56805C92.215 5.56805 96.247 9.08805 96.247 14.7521ZM83.255 14.7521C83.255 17.7601 84.919 19.2001 86.903 19.2001C88.855 19.2001 90.679 17.7601 90.679 14.7521C90.679 11.7121 88.887 10.3041 86.967 10.3041C84.983 10.3041 83.255 11.7121 83.255 14.7521ZM104.622 8.35205C105.614 6.78405 107.502 5.56805 110.126 5.56805C114.51 5.56805 117.998 9.08805 117.998 14.7201C117.998 20.3521 114.51 23.9361 110.126 23.9361C107.502 23.9361 105.614 22.6881 104.622 21.1841V32.1921H99.15V5.82405H104.622V8.35205ZM112.43 14.7201C112.43 11.8721 110.574 10.3361 108.494 10.3361C106.446 10.3361 104.59 11.9041 104.59 14.7521C104.59 17.6001 106.446 19.1681 108.494 19.1681C110.574 19.1681 112.43 17.5681 112.43 14.7201Z" fill="white"/>
<path d="M126.661 20.9921C126.661 22.6241 125.349 23.9361 123.429 23.9361C121.477 23.9361 120.165 22.6241 120.165 20.9921C120.165 19.2961 121.477 17.9841 123.429 17.9841C125.349 17.9841 126.661 19.2961 126.661 20.9921Z" fill="#FF624C"/>
</svg>
